<?xml version="1.0" encoding="UTF-8" standalone="no"?>
<svg
   xmlns:dc="http://purl.org/dc/elements/1.1/"
   xmlns:cc="http://creativecommons.org/ns#"
   xmlns:rdf="http://www.w3.org/1999/02/22-rdf-syntax-ns#"
   xmlns:svg="http://www.w3.org/2000/svg"
   xmlns="http://www.w3.org/2000/svg"
   xmlns:sodipodi="http://sodipodi.sourceforge.net/DTD/sodipodi-0.dtd"
   xmlns:inkscape="http://www.inkscape.org/namespaces/inkscape"
   width="48"
   height="48"
   viewBox="0 0 12.7 12.7"
   version="1.1"
   id="svg8"
   inkscape:version="1.0.2 (e86c8708, 2021-01-15)"
   sodipodi:docname="Logo.svg"
   inkscape:export-filename="/Users/piotrnowakowski/Desktop/Boty-discord/Logo.png"
   inkscape:export-xdpi="96.099998"
   inkscape:export-ydpi="96.099998">
  <defs
     id="defs2" />
  <sodipodi:namedview
     id="base"
     pagecolor="#ffffff"
     bordercolor="#666666"
     borderopacity="1.0"
     inkscape:pageopacity="0.0"
     inkscape:pageshadow="2"
     inkscape:zoom="5.9381758"
     inkscape:cx="8.7463393"
     inkscape:cy="30.640741"
     inkscape:document-units="mm"
     inkscape:current-layer="layer1"
     inkscape:document-rotation="0"
     showgrid="false"
     units="px"
     inkscape:window-width="1440"
     inkscape:window-height="765"
     inkscape:window-x="0"
     inkscape:window-y="25"
     inkscape:window-maximized="0" />
  <metadata
     id="metadata5">
    <rdf:RDF>
      <cc:Work
         rdf:about="">
        <dc:format>image/svg+xml</dc:format>
        <dc:type
           rdf:resource="http://purl.org/dc/dcmitype/StillImage" />
        <dc:title />
      </cc:Work>
    </rdf:RDF>
  </metadata>
  <g
     inkscape:label="Warstwa 1"
     inkscape:groupmode="layer"
     id="layer1">
    <rect
       style="fill:#000000;fill-opacity:1;stroke:none;stroke-width:11.875;stroke-linecap:round;stroke-linejoin:round;stroke-miterlimit:4;stroke-dasharray:none;stroke-dashoffset:244.913"
       id="rect1553"
       width="12.728974"
       height="12.767315"
       x="0.038340285"
       y="0" />
    <path
       style="fill:none;stroke:#ffffff;stroke-width:0.965;stroke-linecap:round;stroke-linejoin:miter;stroke-opacity:1;stroke-miterlimit:4;stroke-dasharray:none"
       d="m 2.3297648,10.913109 c 0,-1.4578065 0,-2.9156124 0,-4.3734184 0,-0.5722231 -0.011676,-1.144565 0,-1.7166688 0.00197,-0.096319 0.010408,-0.1947167 0.040873,-0.2861114 0.00609,-0.01828 0.029393,0.0254 0.040873,0.040873 0.3020081,0.4070543 0.625879,0.7993501 0.8992073,1.2261918 0.7220014,1.1275089 1.3986545,2.2834933 2.0845264,3.4333376 0.240665,0.4034676 0.4470906,0.8270372 0.6948422,1.2261922 0.036636,0.05903 0.042136,-0.134906 0.040873,-0.204365 C 6.1175825,9.5234198 6.0785906,8.7877456 6.0900868,8.0519938 6.2176731,-0.11352066 6.212706,6.6462613 6.212706,4.6595294"
       id="path1475" />
    <path
       style="fill:none;fill-opacity:1;stroke:#ffffff;stroke-width:0.965;stroke-linecap:round;stroke-linejoin:miter;stroke-miterlimit:4;stroke-dasharray:none;stroke-opacity:1"
       d="M 6.9816959,8.1720803 C 7.7106185,8.1711014 11.272599,8.2510073 10.90551,6.9050154 10.85418,6.7168178 10.803043,6.5065904 10.660272,6.3736654 9.900683,5.6664619 8.779669,5.5377752 7.8400304,5.3109656 7.6762113,5.2714231 7.2741872,5.3390789 7.3495535,5.1883466 c 0.060024,-0.1200478 0.039608,0.053609 0.040873,0.081746 0.053886,1.1989707 0.1677633,2.3966561 0.1634921,3.5968296 -0.00936,2.6303668 -0.1277844,5.2592348 -0.2043652,7.8885018 -0.027865,0.956713 -0.040873,0.62065 -0.040873,0.408731"
       id="path1483" />
  </g>
</svg>
